<svg width="2122" height="695" fill="none" xmlns="http://www.w3.org/2000/svg"><mask id="prefix__a" style="mask-type:alpha" maskUnits="userSpaceOnUse" x="60" y="41" width="588" height="556"><path d="M229.788 509.08c-5.026-2.455-7.729.722-7.729 8.439 0 7.717.294 35.453 6.306 47.25a57.88 57.88 0 0025.293 25.293c9.463 4.821 21.161 5.957 40.623 6.225 53.598-2.39 100.504-30.509 128.665-72.305 2.5-3.711-.25-8.557-4.725-8.557H290.276c-17.766 0-44.453 1.487-60.488-6.345zM207.75 270.45c0-7.896-10.44-10.725-14.387-3.886a781644.405 781644.405 0 01-49.776 86.209c-40.45 70.047-26.516 163.98 51.459 216.834 9.646 6.539 17.363-3.858 15.491-12.001-3.981-16.646-2.787-35.128-2.787-52.213V270.45zM518.215 343.856c.387 5.58 4.49 6.333 11.173 2.474 6.684-3.858 30.556-17.981 37.767-29.086a57.878 57.878 0 009.258-34.551c-.556-10.606-5.421-21.305-14.92-38.293-28.869-45.223-76.674-71.785-126.951-75.274-4.464-.31-7.286 4.494-5.048 8.369L493.467 288.3c8.882 15.385 23.514 37.753 24.748 55.556zM322.572 482.254c-6.838 3.948-4.068 14.403 3.828 14.403 20.774-.001 53.356-.002 99.547.002 80.888.007 155.269-59.027 162.055-152.982.839-11.623-12.023-13.108-18.139-7.415-12.425 11.77-29.028 19.978-43.824 28.52L322.572 482.254zM234.794 178.177c4.638-3.124 3.239-7.054-3.444-10.913-6.683-3.858-30.851-17.471-44.073-18.163a57.881 57.881 0 00-34.551 9.257c-8.907 5.785-15.74 15.348-25.703 32.068-24.729 47.613-23.83 102.294-1.714 147.58 1.964 4.021 7.535 4.062 9.773.187l63.972-110.804c8.883-15.386 20.939-39.241 35.74-49.212zM452.475 278.411c6.838 3.948 14.507-3.678 10.559-10.516-10.388-17.99-26.679-46.207-49.771-86.212-40.438-70.054-128.753-104.953-213.514-63.852-10.486 5.084-5.34 16.966 2.648 19.416 16.406 4.876 31.815 15.15 46.611 23.693l203.467 117.471z" fill="#D9D9D9"/></mask><g mask="url(#prefix__a)"><path fill="#28A7E5" d="M71.574 75.727h555.617v547.9H71.574z"/><g filter="url(#prefix__filter0_f_473_94381)"><circle cx="783.94" cy="429.003" r="525.682" fill="#9F59FF"/></g><g filter="url(#prefix__filter1_f_473_94381)"><circle cx="774.928" cy="208.218" r="230.8" fill="#FF2FC5"/></g><g filter="url(#prefix__filter2_f_473_94381)"><circle cx="-46.128" cy="650.8" r="289.384" fill="#42C7F1"/></g></g><g style="mix-blend-mode:overlay" opacity=".6"><path d="M207.769 481.351v-210.91c0-7.896-10.452-10.696-14.4-3.859l-53.111 91.991 67.511 122.778z" fill="url(#prefix__paint0_linear_473_94381)"/><path d="M505.477 376.684L322.823 482.14c-6.838 3.947-4.037 14.4 3.858 14.4h106.222l72.574-119.856z" fill="url(#prefix__paint1_linear_473_94381)"/><path d="M269.704 172.775L452.358 278.23c6.837 3.948 14.489-3.704 10.541-10.541l-53.111-91.991-140.084-2.923z" fill="url(#prefix__paint2_linear_473_94381)"/></g><rect x="750.836" y="233.035" width="50.876" height="232.957" rx="8.926" fill="#232833"/><rect x="908.816" y="233.035" width="50.876" height="232.957" rx="8.926" fill="#232833"/><rect x="948.09" y="325.861" width="42.843" height="191.899" rx="8.926" transform="rotate(90 948.09 325.861)" fill="#232833"/><path fill-rule="evenodd" clip-rule="evenodd" d="M1180.16 300.625c0 .767.17 1.524.5 2.215l74.08 153.977a7.141 7.141 0 009.53 3.338l28.96-13.931c3.55-1.71 5.05-5.976 3.34-9.53l-65.98-137.134a7.142 7.142 0 00-6.44-4.044h-38.88a5.104 5.104 0 00-5.11 5.109z" fill="#232833"/><path fill-rule="evenodd" clip-rule="evenodd" d="M1325.98 295.516a7.127 7.127 0 00-6.56 4.337l-69.52 162.868a51.763 51.763 0 01-36.07 30.144l-6.89 1.575a7.136 7.136 0 00-5.37 8.552l7.16 31.324a7.14 7.14 0 008.55 5.369l6.89-1.575a98.19 98.19 0 0068.42-57.17l74.9-175.481c2.01-4.71-1.45-9.943-6.57-9.943h-34.94zM1592.51 246.616c0-2.865-1.7-5.465-4.37-6.507-19.2-7.502-43.75-12.882-76.4-12.88-33.54.001-63.79 11.942-85.52 35.207-21.62 23.16-32.91 55.484-32.75 92.973.31 70.559 54.81 116.829 115.04 115.93 44.56-.665 66.84-9.611 79.35-16.372 10.15-5.483 15.81-15.96 15.81-26.624v-71.516c0-12.915-10.47-23.385-23.38-23.385h-64.98a7.136 7.136 0 00-7.14 7.141v32.132c0 3.943 3.19 7.14 7.14 7.14h34.81c3.94 0 7.14 3.197 7.14 7.14v25.902c0 3.017-1.89 5.731-4.79 6.569-9.12 2.636-23.18 5.145-44.65 5.466-35.45.529-67.75-26.021-67.93-69.722-.12-28.107 8.23-48.219 20.26-61.097 11.92-12.773 29.34-20.471 51.59-20.472 30.65-.001 50.65 5.61 64.46 11.767 1.75.779 3.39 1.554 4.93 2.326 5.06 2.531 11.38-.94 11.38-6.6v-34.518z" fill="#232833"/><rect x="1834.4" y="288.375" width="50.876" height="177.618" rx="8.926" fill="#232833"/><rect x="1948.64" y="426.721" width="46.413" height="39.272" rx="8.926" fill="#232833"/><path fill-rule="evenodd" clip-rule="evenodd" d="M1862.75 351.384a5.36 5.36 0 01-1.58-3.798l3.57-14.047c0-1.714-13.41 11.546 2.22-4.313 15.64-15.859 33.93-34.157 61.83-34.603 35.28 0 66.27 20.083 66.27 58.81v97.319c0 .037-.03.068-.07.068h-46.28a.069.069 0 01-.07-.068V354.326c0-11.316-10.71-19.538-27.66-19.538-16.96 0-30.31 7.017-44.86 20.556-2.16 2.015-5.55 2.032-7.64-.054l-5.73-3.906zM1088.55 288.375c-26.99 0-50.02 9.123-66.2 26.31-16 16.987-23.385 39.795-23.385 63.792 0 22.378 4.885 46.256 20.575 64.782 16.26 19.193 40.95 28.982 72.64 28.982 26.85 0 51.31-7.601 70.74-16.448a3.534 3.534 0 002.06-3.222v-39.972c0-2.794-3.07-4.519-5.49-3.136-16.86 9.601-41.12 19.936-67.31 19.936-22.7 0-33.91-6.695-39.95-13.829-4.79-5.653-8.11-13.663-9.58-24.113h84.69l.12.002h35.71c1.97 0 3.57-1.597 3.54-3.568-.28-17.172-2.67-39.756-12.31-59.157-5.31-10.697-13.13-21.024-24.51-28.628-11.52-7.692-25.4-11.731-41.34-11.731zm32.59 74.52c-1.22-5.491-2.88-10.624-5.11-15.099-2.78-5.597-6.11-9.505-9.94-12.062-3.69-2.469-9.09-4.516-17.54-4.516-17.07 0-28.13 5.529-35.01 12.838-4.44 4.71-7.92 11.005-9.91 18.839h77.51zM1723.16 288.375c-27 0-50.02 9.123-66.21 26.31-15.99 16.987-23.38 39.795-23.38 63.792 0 22.378 4.88 46.256 20.58 64.782 16.25 19.193 40.94 28.982 72.64 28.982 26.85 0 51.31-7.601 70.74-16.448a3.534 3.534 0 002.06-3.222v-39.972c0-2.794-3.07-4.519-5.5-3.136-16.85 9.601-41.11 19.936-67.3 19.936-22.7 0-33.91-6.695-39.95-13.829-4.79-5.653-8.11-13.663-9.58-24.113h84.68l.13.002h35.7c1.97 0 3.58-1.598 3.53-3.57-.4-17.942-3.91-40.436-14.04-59.62-11.36-21.536-31.95-39.894-64.1-39.894zm31.77 74.52c-1.4-5.258-3.24-10.24-5.56-14.634-5.83-11.054-13.62-17.043-26.21-17.043-17.07 0-28.13 5.529-35.02 12.838-4.43 4.71-7.92 11.005-9.9 18.839h76.69z" fill="#232833"/><defs><linearGradient id="prefix__paint0_linear_473_94381" x1="170.247" y1="241.641" x2="170.247" y2="480.866" gradientUnits="userSpaceOnUse"><stop stop-color="#fff"/><stop offset="1" stop-color="#fff" stop-opacity="0"/></linearGradient><linearGradient id="prefix__paint1_linear_473_94381" x1="316.643" y1="529.035" x2="523.818" y2="409.422" gradientUnits="userSpaceOnUse"><stop stop-color="#fff"/><stop offset="1" stop-color="#fff" stop-opacity="0"/></linearGradient><linearGradient id="prefix__paint2_linear_473_94381" x1="496.06" y1="260.135" x2="288.885" y2="140.522" gradientUnits="userSpaceOnUse"><stop stop-color="#fff"/><stop offset="1" stop-color="#fff" stop-opacity="0"/></linearGradient><filter id="prefix__filter0_f_473_94381" x="-204.756" y="-559.694" width="1977.39" height="1977.39" filterUnits="userSpaceOnUse" color-interpolation-filters="sRGB"><feFlood flood-opacity="0" result="BackgroundImageFix"/><feBlend in="SourceGraphic" in2="BackgroundImageFix" result="shape"/><feGaussianBlur stdDeviation="231.507" result="effect1_foregroundBlur_473_94381"/></filter><filter id="prefix__filter1_f_473_94381" x="383.921" y="-182.79" width="782.014" height="782.016" filterUnits="userSpaceOnUse" color-interpolation-filters="sRGB"><feFlood flood-opacity="0" result="BackgroundImageFix"/><feBlend in="SourceGraphic" in2="BackgroundImageFix" result="shape"/><feGaussianBlur stdDeviation="80.104" result="effect1_foregroundBlur_473_94381"/></filter><filter id="prefix__filter2_f_473_94381" x="-527.261" y="169.667" width="962.263" height="962.265" filterUnits="userSpaceOnUse" color-interpolation-filters="sRGB"><feFlood flood-opacity="0" result="BackgroundImageFix"/><feBlend in="SourceGraphic" in2="BackgroundImageFix" result="shape"/><feGaussianBlur stdDeviation="95.874" result="effect1_foregroundBlur_473_94381"/></filter></defs></svg>
